<svg xmlns="http://www.w3.org/2000/svg" viewBox="0 0 1080 770" width="1080" height="770" font-family="Helvetica, Arial, sans-serif">
<rect x="0" y="0" width="1080" height="770" fill="#ffffff"/>
<path d="M 390.0 193.0 C 330.0 193.0, 330.0 67.0, 270.0 67.0" fill="none" stroke="#9fb4c7" stroke-width="1.5"/>
<line x1="390.0" y1="193.0" x2="400.0" y2="187.0" stroke="#6f8ba3" stroke-width="1.5"/>
<line x1="390.0" y1="193.0" x2="400.0" y2="199.0" stroke="#6f8ba3" stroke-width="1.5"/>
<line x1="266.0" y1="61.0" x2="266.0" y2="73.0" stroke="#6f8ba3" stroke-width="1.5"/>
<path d="M 390.0 219.0 C 330.0 219.0, 330.0 467.0, 270.0 467.0" fill="none" stroke="#9fb4c7" stroke-width="1.5"/>
<line x1="390.0" y1="219.0" x2="400.0" y2="213.0" stroke="#6f8ba3" stroke-width="1.5"/>
<line x1="390.0" y1="219.0" x2="400.0" y2="225.0" stroke="#6f8ba3" stroke-width="1.5"/>
<line x1="266.0" y1="461.0" x2="266.0" y2="473.0" stroke="#6f8ba3" stroke-width="1.5"/>
<path d="M 770.0 67.0 C 705.0 67.0, 705.0 167.0, 640.0 167.0" fill="none" stroke="#9fb4c7" stroke-width="1.5"/>
<line x1="774.0" y1="61.0" x2="774.0" y2="73.0" stroke="#6f8ba3" stroke-width="1.5"/>
<line x1="636.0" y1="161.0" x2="636.0" y2="173.0" stroke="#6f8ba3" stroke-width="1.5"/>
<path d="M 770.0 347.0 C 705.0 347.0, 705.0 167.0, 640.0 167.0" fill="none" stroke="#9fb4c7" stroke-width="1.5"/>
<line x1="774.0" y1="341.0" x2="774.0" y2="353.0" stroke="#6f8ba3" stroke-width="1.5"/>
<line x1="636.0" y1="161.0" x2="636.0" y2="173.0" stroke="#6f8ba3" stroke-width="1.5"/>
<path d="M 770.0 543.0 C 705.0 543.0, 705.0 167.0, 640.0 167.0" fill="none" stroke="#9fb4c7" stroke-width="1.5"/>
<line x1="770.0" y1="543.0" x2="780.0" y2="537.0" stroke="#6f8ba3" stroke-width="1.5"/>
<line x1="770.0" y1="543.0" x2="780.0" y2="549.0" stroke="#6f8ba3" stroke-width="1.5"/>
<line x1="636.0" y1="161.0" x2="636.0" y2="173.0" stroke="#6f8ba3" stroke-width="1.5"/>
<path d="M 390.0 553.0 C 330.0 553.0, 330.0 467.0, 270.0 467.0" fill="none" stroke="#9fb4c7" stroke-width="1.5"/>
<line x1="390.0" y1="553.0" x2="400.0" y2="547.0" stroke="#6f8ba3" stroke-width="1.5"/>
<line x1="390.0" y1="553.0" x2="400.0" y2="559.0" stroke="#6f8ba3" stroke-width="1.5"/>
<line x1="266.0" y1="461.0" x2="266.0" y2="473.0" stroke="#6f8ba3" stroke-width="1.5"/>
<g>
<rect x="20" y="20" width="250" height="268" rx="6" fill="#fbfbfb" stroke="#d8d8d8"/>
<rect x="20" y="20" width="250" height="34" rx="6" fill="#3a6ea5"/>
<rect x="20" y="48" width="250" height="6" fill="#3a6ea5"/>
<text x="32" y="42.0" fill="#ffffff" font-size="14" font-weight="700">users</text>
<rect x="20" y="54" width="250" height="26" fill="#fbfbfb"/>
<circle cx="36" cy="67.0" r="4" fill="none" stroke="#3a6ea5" stroke-width="1.5"/>
<text x="46" y="71.5" fill="#3a6ea5" font-size="12.5" font-weight="700">id</text>
<text x="258" y="71.5" fill="#8a8a8a" font-size="11.5" font-family="Menlo, Consolas, monospace" text-anchor="end">integer</text>
<rect x="20" y="80" width="250" height="26" fill="#f2f2f2"/>
<text x="32" y="97.5" fill="#1f1f1f" font-size="12.5" font-weight="400">name</text>
<text x="234" y="97.5" fill="#8a8a8a" font-size="11.5" font-family="Menlo, Consolas, monospace" text-anchor="end">varchar(25)</text>
<rect x="238" y="85" width="20" height="16" rx="3" fill="#e7e7e7"/>
<text x="248" y="97.0" fill="#6a6a6a" font-size="9" text-anchor="middle" font-weight="700">NN</text>
<rect x="20" y="106" width="250" height="26" fill="#fbfbfb"/>
<text x="32" y="123.5" fill="#1f1f1f" font-size="12.5" font-weight="400">surname</text>
<text x="234" y="123.5" fill="#8a8a8a" font-size="11.5" font-family="Menlo, Consolas, monospace" text-anchor="end">varchar(25)</text>
<rect x="238" y="111" width="20" height="16" rx="3" fill="#e7e7e7"/>
<text x="248" y="123.0" fill="#6a6a6a" font-size="9" text-anchor="middle" font-weight="700">NN</text>
<rect x="20" y="132" width="250" height="26" fill="#f2f2f2"/>
<text x="32" y="149.5" fill="#1f1f1f" font-size="12.5" font-weight="400">patronymic</text>
<text x="258" y="149.5" fill="#8a8a8a" font-size="11.5" font-family="Menlo, Consolas, monospace" text-anchor="end">varchar(25)</text>
<rect x="20" y="158" width="250" height="26" fill="#fbfbfb"/>
<text x="32" y="175.5" fill="#1f1f1f" font-size="12.5" font-weight="400">email</text>
<text x="234" y="175.5" fill="#8a8a8a" font-size="11.5" font-family="Menlo, Consolas, monospace" text-anchor="end">varchar(255)</text>
<rect x="238" y="163" width="20" height="16" rx="3" fill="#e7e7e7"/>
<text x="248" y="175.0" fill="#6a6a6a" font-size="9" text-anchor="middle" font-weight="700">NN</text>
<rect x="20" y="184" width="250" height="26" fill="#f2f2f2"/>
<text x="32" y="201.5" fill="#1f1f1f" font-size="12.5" font-weight="400">hashed_password</text>
<text x="234" y="201.5" fill="#8a8a8a" font-size="11.5" font-family="Menlo, Consolas, monospace" text-anchor="end">varchar(255)</text>
<rect x="238" y="189" width="20" height="16" rx="3" fill="#e7e7e7"/>
<text x="248" y="201.0" fill="#6a6a6a" font-size="9" text-anchor="middle" font-weight="700">NN</text>
<rect x="20" y="210" width="250" height="26" fill="#fbfbfb"/>
<text x="32" y="227.5" fill="#1f1f1f" font-size="12.5" font-weight="400">role</text>
<text x="234" y="227.5" fill="#8a8a8a" font-size="11.5" font-family="Menlo, Consolas, monospace" text-anchor="end">varchar</text>
<rect x="238" y="215" width="20" height="16" rx="3" fill="#e7e7e7"/>
<text x="248" y="227.0" fill="#6a6a6a" font-size="9" text-anchor="middle" font-weight="700">NN</text>
<rect x="20" y="236" width="250" height="26" fill="#f2f2f2"/>
<text x="32" y="253.5" fill="#1f1f1f" font-size="12.5" font-weight="400">is_active</text>
<text x="234" y="253.5" fill="#8a8a8a" font-size="11.5" font-family="Menlo, Consolas, monospace" text-anchor="end">boolean</text>
<rect x="238" y="241" width="20" height="16" rx="3" fill="#e7e7e7"/>
<text x="248" y="253.0" fill="#6a6a6a" font-size="9" text-anchor="middle" font-weight="700">NN</text>
<rect x="20" y="262" width="250" height="26" fill="#fbfbfb"/>
<text x="32" y="279.5" fill="#1f1f1f" font-size="12.5" font-weight="400">created_at</text>
<text x="258" y="279.5" fill="#8a8a8a" font-size="11.5" font-family="Menlo, Consolas, monospace" text-anchor="end">timestamp</text>
</g>
<g>
<rect x="20" y="420" width="250" height="242" rx="6" fill="#fbfbfb" stroke="#d8d8d8"/>
<rect x="20" y="420" width="250" height="34" rx="6" fill="#3a6ea5"/>
<rect x="20" y="448" width="250" height="6" fill="#3a6ea5"/>
<text x="32" y="442.0" fill="#ffffff" font-size="14" font-weight="700">companies</text>
<rect x="20" y="454" width="250" height="26" fill="#fbfbfb"/>
<circle cx="36" cy="467.0" r="4" fill="none" stroke="#3a6ea5" stroke-width="1.5"/>
<text x="46" y="471.5" fill="#3a6ea5" font-size="12.5" font-weight="700">id</text>
<text x="258" y="471.5" fill="#8a8a8a" font-size="11.5" font-family="Menlo, Consolas, monospace" text-anchor="end">integer</text>
<rect x="20" y="480" width="250" height="26" fill="#f2f2f2"/>
<text x="32" y="497.5" fill="#1f1f1f" font-size="12.5" font-weight="400">inn</text>
<text x="234" y="497.5" fill="#8a8a8a" font-size="11.5" font-family="Menlo, Consolas, monospace" text-anchor="end">varchar(12)</text>
<rect x="238" y="485" width="20" height="16" rx="3" fill="#e7e7e7"/>
<text x="248" y="497.0" fill="#6a6a6a" font-size="9" text-anchor="middle" font-weight="700">NN</text>
<rect x="20" y="506" width="250" height="26" fill="#fbfbfb"/>
<text x="32" y="523.5" fill="#1f1f1f" font-size="12.5" font-weight="400">ogrn</text>
<text x="258" y="523.5" fill="#8a8a8a" font-size="11.5" font-family="Menlo, Consolas, monospace" text-anchor="end">varchar(15)</text>
<rect x="20" y="532" width="250" height="26" fill="#f2f2f2"/>
<text x="32" y="549.5" fill="#1f1f1f" font-size="12.5" font-weight="400">company_name</text>
<text x="258" y="549.5" fill="#8a8a8a" font-size="11.5" font-family="Menlo, Consolas, monospace" text-anchor="end">varchar(255)</text>
<rect x="20" y="558" width="250" height="26" fill="#fbfbfb"/>
<text x="32" y="575.5" fill="#1f1f1f" font-size="12.5" font-weight="400">region</text>
<text x="258" y="575.5" fill="#8a8a8a" font-size="11.5" font-family="Menlo, Consolas, monospace" text-anchor="end">varchar(3)</text>
<rect x="20" y="584" width="250" height="26" fill="#f2f2f2"/>
<text x="32" y="601.5" fill="#1f1f1f" font-size="12.5" font-weight="400">kpp</text>
<text x="258" y="601.5" fill="#8a8a8a" font-size="11.5" font-family="Menlo, Consolas, monospace" text-anchor="end">varchar(9)</text>
<rect x="20" y="610" width="250" height="26" fill="#fbfbfb"/>
<text x="32" y="627.5" fill="#1f1f1f" font-size="12.5" font-weight="400">created_at</text>
<text x="258" y="627.5" fill="#8a8a8a" font-size="11.5" font-family="Menlo, Consolas, monospace" text-anchor="end">timestamp</text>
<rect x="20" y="636" width="250" height="26" fill="#f2f2f2"/>
<text x="32" y="653.5" fill="#1f1f1f" font-size="12.5" font-weight="400">updated_at</text>
<text x="258" y="653.5" fill="#8a8a8a" font-size="11.5" font-family="Menlo, Consolas, monospace" text-anchor="end">timestamp</text>
</g>
<g>
<rect x="390" y="120" width="250" height="242" rx="6" fill="#fbfbfb" stroke="#d8d8d8"/>
<rect x="390" y="120" width="250" height="34" rx="6" fill="#3a6ea5"/>
<rect x="390" y="148" width="250" height="6" fill="#3a6ea5"/>
<text x="402" y="142.0" fill="#ffffff" font-size="14" font-weight="700">forms</text>
<rect x="390" y="154" width="250" height="26" fill="#fbfbfb"/>
<circle cx="406" cy="167.0" r="4" fill="none" stroke="#3a6ea5" stroke-width="1.5"/>
<text x="416" y="171.5" fill="#3a6ea5" font-size="12.5" font-weight="700">id</text>
<text x="628" y="171.5" fill="#8a8a8a" font-size="11.5" font-family="Menlo, Consolas, monospace" text-anchor="end">integer</text>
<rect x="390" y="180" width="250" height="26" fill="#f2f2f2"/>
<circle cx="406" cy="193.0" r="3.5" fill="none" stroke="#8a8a8a" stroke-width="1.3"/>
<text x="416" y="197.5" fill="#1f1f1f" font-size="12.5" font-weight="400">user_id</text>
<text x="604" y="197.5" fill="#8a8a8a" font-size="11.5" font-family="Menlo, Consolas, monospace" text-anchor="end">integer</text>
<rect x="608" y="185" width="20" height="16" rx="3" fill="#e7e7e7"/>
<text x="618" y="197.0" fill="#6a6a6a" font-size="9" text-anchor="middle" font-weight="700">NN</text>
<rect x="390" y="206" width="250" height="26" fill="#fbfbfb"/>
<circle cx="406" cy="219.0" r="3.5" fill="none" stroke="#8a8a8a" stroke-width="1.3"/>
<text x="416" y="223.5" fill="#1f1f1f" font-size="12.5" font-weight="400">company_id</text>
<text x="604" y="223.5" fill="#8a8a8a" font-size="11.5" font-family="Menlo, Consolas, monospace" text-anchor="end">integer</text>
<rect x="608" y="211" width="20" height="16" rx="3" fill="#e7e7e7"/>
<text x="618" y="223.0" fill="#6a6a6a" font-size="9" text-anchor="middle" font-weight="700">NN</text>
<rect x="390" y="232" width="250" height="26" fill="#f2f2f2"/>
<text x="402" y="249.5" fill="#1f1f1f" font-size="12.5" font-weight="400">title</text>
<text x="604" y="249.5" fill="#8a8a8a" font-size="11.5" font-family="Menlo, Consolas, monospace" text-anchor="end">varchar(50)</text>
<rect x="608" y="237" width="20" height="16" rx="3" fill="#e7e7e7"/>
<text x="618" y="249.0" fill="#6a6a6a" font-size="9" text-anchor="middle" font-weight="700">NN</text>
<rect x="390" y="258" width="250" height="26" fill="#fbfbfb"/>
<text x="402" y="275.5" fill="#1f1f1f" font-size="12.5" font-weight="400">description</text>
<text x="628" y="275.5" fill="#8a8a8a" font-size="11.5" font-family="Menlo, Consolas, monospace" text-anchor="end">varchar(500)</text>
<rect x="390" y="284" width="250" height="26" fill="#f2f2f2"/>
<text x="402" y="301.5" fill="#1f1f1f" font-size="12.5" font-weight="400">form_type</text>
<text x="604" y="301.5" fill="#8a8a8a" font-size="11.5" font-family="Menlo, Consolas, monospace" text-anchor="end">varchar</text>
<rect x="608" y="289" width="20" height="16" rx="3" fill="#e7e7e7"/>
<text x="618" y="301.0" fill="#6a6a6a" font-size="9" text-anchor="middle" font-weight="700">NN</text>
<rect x="390" y="310" width="250" height="26" fill="#fbfbfb"/>
<text x="402" y="327.5" fill="#1f1f1f" font-size="12.5" font-weight="400">created_at</text>
<text x="628" y="327.5" fill="#8a8a8a" font-size="11.5" font-family="Menlo, Consolas, monospace" text-anchor="end">timestamp</text>
<rect x="390" y="336" width="250" height="26" fill="#f2f2f2"/>
<text x="402" y="353.5" fill="#1f1f1f" font-size="12.5" font-weight="400">updated_at</text>
<text x="628" y="353.5" fill="#8a8a8a" font-size="11.5" font-family="Menlo, Consolas, monospace" text-anchor="end">timestamp</text>
</g>
<g>
<rect x="770" y="20" width="250" height="164" rx="6" fill="#fbfbfb" stroke="#d8d8d8"/>
<rect x="770" y="20" width="250" height="34" rx="6" fill="#3a6ea5"/>
<rect x="770" y="48" width="250" height="6" fill="#3a6ea5"/>
<text x="782" y="42.0" fill="#ffffff" font-size="14" font-weight="700">investor_forms</text>
<rect x="770" y="54" width="250" height="26" fill="#fbfbfb"/>
<circle cx="786" cy="67.0" r="4" fill="none" stroke="#3a6ea5" stroke-width="1.5"/>
<text x="796" y="71.5" fill="#3a6ea5" font-size="12.5" font-weight="700">id</text>
<text x="1008" y="71.5" fill="#8a8a8a" font-size="11.5" font-family="Menlo, Consolas, monospace" text-anchor="end">integer</text>
<rect x="770" y="80" width="250" height="26" fill="#f2f2f2"/>
<text x="782" y="97.5" fill="#1f1f1f" font-size="12.5" font-weight="400">currency</text>
<text x="984" y="97.5" fill="#8a8a8a" font-size="11.5" font-family="Menlo, Consolas, monospace" text-anchor="end">varchar</text>
<rect x="988" y="85" width="20" height="16" rx="3" fill="#e7e7e7"/>
<text x="998" y="97.0" fill="#6a6a6a" font-size="9" text-anchor="middle" font-weight="700">NN</text>
<rect x="770" y="106" width="250" height="26" fill="#fbfbfb"/>
<text x="782" y="123.5" fill="#1f1f1f" font-size="12.5" font-weight="400">lowest_investment</text>
<text x="984" y="123.5" fill="#8a8a8a" font-size="11.5" font-family="Menlo, Consolas, monospace" text-anchor="end">integer</text>
<rect x="988" y="111" width="20" height="16" rx="3" fill="#e7e7e7"/>
<text x="998" y="123.0" fill="#6a6a6a" font-size="9" text-anchor="middle" font-weight="700">NN</text>
<rect x="770" y="132" width="250" height="26" fill="#f2f2f2"/>
<text x="782" y="149.5" fill="#1f1f1f" font-size="12.5" font-weight="400">highest_investment</text>
<text x="984" y="149.5" fill="#8a8a8a" font-size="11.5" font-family="Menlo, Consolas, monospace" text-anchor="end">integer</text>
<rect x="988" y="137" width="20" height="16" rx="3" fill="#e7e7e7"/>
<text x="998" y="149.0" fill="#6a6a6a" font-size="9" text-anchor="middle" font-weight="700">NN</text>
<rect x="770" y="158" width="250" height="26" fill="#fbfbfb"/>
<text x="782" y="175.5" fill="#1f1f1f" font-size="12.5" font-weight="400">royalty_percentage</text>
<text x="984" y="175.5" fill="#8a8a8a" font-size="11.5" font-family="Menlo, Consolas, monospace" text-anchor="end">numeric</text>
<rect x="988" y="163" width="20" height="16" rx="3" fill="#e7e7e7"/>
<text x="998" y="175.0" fill="#6a6a6a" font-size="9" text-anchor="middle" font-weight="700">NN</text>
</g>
<g>
<rect x="770" y="300" width="250" height="112" rx="6" fill="#fbfbfb" stroke="#d8d8d8"/>
<rect x="770" y="300" width="250" height="34" rx="6" fill="#3a6ea5"/>
<rect x="770" y="328" width="250" height="6" fill="#3a6ea5"/>
<text x="782" y="322.0" fill="#ffffff" font-size="14" font-weight="700">startup_forms</text>
<rect x="770" y="334" width="250" height="26" fill="#fbfbfb"/>
<circle cx="786" cy="347.0" r="4" fill="none" stroke="#3a6ea5" stroke-width="1.5"/>
<text x="796" y="351.5" fill="#3a6ea5" font-size="12.5" font-weight="700">id</text>
<text x="1008" y="351.5" fill="#8a8a8a" font-size="11.5" font-family="Menlo, Consolas, monospace" text-anchor="end">integer</text>
<rect x="770" y="360" width="250" height="26" fill="#f2f2f2"/>
<text x="782" y="377.5" fill="#1f1f1f" font-size="12.5" font-weight="400">currency</text>
<text x="984" y="377.5" fill="#8a8a8a" font-size="11.5" font-family="Menlo, Consolas, monospace" text-anchor="end">varchar</text>
<rect x="988" y="365" width="20" height="16" rx="3" fill="#e7e7e7"/>
<text x="998" y="377.0" fill="#6a6a6a" font-size="9" text-anchor="middle" font-weight="700">NN</text>
<rect x="770" y="386" width="250" height="26" fill="#fbfbfb"/>
<text x="782" y="403.5" fill="#1f1f1f" font-size="12.5" font-weight="400">required_investment</text>
<text x="984" y="403.5" fill="#8a8a8a" font-size="11.5" font-family="Menlo, Consolas, monospace" text-anchor="end">integer</text>
<rect x="988" y="391" width="20" height="16" rx="3" fill="#e7e7e7"/>
<text x="998" y="403.0" fill="#6a6a6a" font-size="9" text-anchor="middle" font-weight="700">NN</text>
</g>
<g>
<rect x="770" y="470" width="250" height="138" rx="6" fill="#fbfbfb" stroke="#d8d8d8"/>
<rect x="770" y="470" width="250" height="34" rx="6" fill="#3a6ea5"/>
<rect x="770" y="498" width="250" height="6" fill="#3a6ea5"/>
<text x="782" y="492.0" fill="#ffffff" font-size="14" font-weight="700">medias</text>
<rect x="770" y="504" width="250" height="26" fill="#fbfbfb"/>
<circle cx="786" cy="517.0" r="4" fill="none" stroke="#3a6ea5" stroke-width="1.5"/>
<text x="796" y="521.5" fill="#3a6ea5" font-size="12.5" font-weight="700">id</text>
<text x="1008" y="521.5" fill="#8a8a8a" font-size="11.5" font-family="Menlo, Consolas, monospace" text-anchor="end">integer</text>
<rect x="770" y="530" width="250" height="26" fill="#f2f2f2"/>
<circle cx="786" cy="543.0" r="3.5" fill="none" stroke="#8a8a8a" stroke-width="1.3"/>
<text x="796" y="547.5" fill="#1f1f1f" font-size="12.5" font-weight="400">form_id</text>
<text x="984" y="547.5" fill="#8a8a8a" font-size="11.5" font-family="Menlo, Consolas, monospace" text-anchor="end">integer</text>
<rect x="988" y="535" width="20" height="16" rx="3" fill="#e7e7e7"/>
<text x="998" y="547.0" fill="#6a6a6a" font-size="9" text-anchor="middle" font-weight="700">NN</text>
<rect x="770" y="556" width="250" height="26" fill="#fbfbfb"/>
<text x="782" y="573.5" fill="#1f1f1f" font-size="12.5" font-weight="400">filepath</text>
<text x="984" y="573.5" fill="#8a8a8a" font-size="11.5" font-family="Menlo, Consolas, monospace" text-anchor="end">varchar(255)</text>
<rect x="988" y="561" width="20" height="16" rx="3" fill="#e7e7e7"/>
<text x="998" y="573.0" fill="#6a6a6a" font-size="9" text-anchor="middle" font-weight="700">NN</text>
<rect x="770" y="582" width="250" height="26" fill="#f2f2f2"/>
<text x="782" y="599.5" fill="#1f1f1f" font-size="12.5" font-weight="400">uploaded_at</text>
<text x="1008" y="599.5" fill="#8a8a8a" font-size="11.5" font-family="Menlo, Consolas, monospace" text-anchor="end">timestamp</text>
</g>
<g>
<rect x="390" y="480" width="250" height="242" rx="6" fill="#fbfbfb" stroke="#d8d8d8"/>
<rect x="390" y="480" width="250" height="34" rx="6" fill="#3a6ea5"/>
<rect x="390" y="508" width="250" height="6" fill="#3a6ea5"/>
<text x="402" y="502.0" fill="#ffffff" font-size="14" font-weight="700">verifications</text>
<rect x="390" y="514" width="250" height="26" fill="#fbfbfb"/>
<circle cx="406" cy="527.0" r="4" fill="none" stroke="#3a6ea5" stroke-width="1.5"/>
<text x="416" y="531.5" fill="#3a6ea5" font-size="12.5" font-weight="700">id</text>
<text x="628" y="531.5" fill="#8a8a8a" font-size="11.5" font-family="Menlo, Consolas, monospace" text-anchor="end">integer</text>
<rect x="390" y="540" width="250" height="26" fill="#f2f2f2"/>
<circle cx="406" cy="553.0" r="3.5" fill="none" stroke="#8a8a8a" stroke-width="1.3"/>
<text x="416" y="557.5" fill="#1f1f1f" font-size="12.5" font-weight="400">company_id</text>
<text x="604" y="557.5" fill="#8a8a8a" font-size="11.5" font-family="Menlo, Consolas, monospace" text-anchor="end">integer</text>
<rect x="608" y="545" width="20" height="16" rx="3" fill="#e7e7e7"/>
<text x="618" y="557.0" fill="#6a6a6a" font-size="9" text-anchor="middle" font-weight="700">NN</text>
<rect x="390" y="566" width="250" height="26" fill="#fbfbfb"/>
<text x="402" y="583.5" fill="#1f1f1f" font-size="12.5" font-weight="400">type</text>
<text x="604" y="583.5" fill="#8a8a8a" font-size="11.5" font-family="Menlo, Consolas, monospace" text-anchor="end">varchar</text>
<rect x="608" y="571" width="20" height="16" rx="3" fill="#e7e7e7"/>
<text x="618" y="583.0" fill="#6a6a6a" font-size="9" text-anchor="middle" font-weight="700">NN</text>
<rect x="390" y="592" width="250" height="26" fill="#f2f2f2"/>
<text x="402" y="609.5" fill="#1f1f1f" font-size="12.5" font-weight="400">provider</text>
<text x="628" y="609.5" fill="#8a8a8a" font-size="11.5" font-family="Menlo, Consolas, monospace" text-anchor="end">varchar(50)</text>
<rect x="390" y="618" width="250" height="26" fill="#fbfbfb"/>
<text x="402" y="635.5" fill="#1f1f1f" font-size="12.5" font-weight="400">external_ref</text>
<text x="628" y="635.5" fill="#8a8a8a" font-size="11.5" font-family="Menlo, Consolas, monospace" text-anchor="end">varchar(255)</text>
<rect x="390" y="644" width="250" height="26" fill="#f2f2f2"/>
<text x="402" y="661.5" fill="#1f1f1f" font-size="12.5" font-weight="400">status</text>
<text x="604" y="661.5" fill="#8a8a8a" font-size="11.5" font-family="Menlo, Consolas, monospace" text-anchor="end">varchar</text>
<rect x="608" y="649" width="20" height="16" rx="3" fill="#e7e7e7"/>
<text x="618" y="661.0" fill="#6a6a6a" font-size="9" text-anchor="middle" font-weight="700">NN</text>
<rect x="390" y="670" width="250" height="26" fill="#fbfbfb"/>
<text x="402" y="687.5" fill="#1f1f1f" font-size="12.5" font-weight="400">result_json</text>
<text x="628" y="687.5" fill="#8a8a8a" font-size="11.5" font-family="Menlo, Consolas, monospace" text-anchor="end">jsonb</text>
<rect x="390" y="696" width="250" height="26" fill="#f2f2f2"/>
<text x="402" y="713.5" fill="#1f1f1f" font-size="12.5" font-weight="400">checked_at</text>
<text x="628" y="713.5" fill="#8a8a8a" font-size="11.5" font-family="Menlo, Consolas, monospace" text-anchor="end">timestamp</text>
</g>
<text x="20" y="760" fill="#9a9a9a" font-size="11">pitchy — схема базы данных (сгенерировано из infrastructure/db/models.py)</text>
</svg>